<svg width="140" height="37" viewBox="0 0 140 37" fill="none" xmlns="http://www.w3.org/2000/svg">
<path fill-rule="evenodd" clip-rule="evenodd" d="M131.556 16.1368C132.426 15.4971 133.496 15.1133 134.667 15.1133C137.564 15.1133 139.904 17.4447 139.904 20.3164C139.904 23.1881 137.549 25.5337 134.667 25.5337C133.496 25.5337 132.426 25.1499 131.556 24.5102V31.6609H128.93V15.3407H131.556V16.1368ZM131.812 20.3457C131.812 21.9095 133.082 23.189 134.666 23.189C136.25 23.189 137.52 21.9095 137.52 20.3457C137.52 18.782 136.236 17.5025 134.666 17.5025C133.096 17.5025 131.812 18.782 131.812 20.3457Z" fill="#0D0C1A"/>
<path fill-rule="evenodd" clip-rule="evenodd" d="M42.8323 14.5158C42.3898 15.6105 42.1758 16.8189 42.1758 18.1552C42.1758 19.4488 42.4041 20.6288 42.8323 21.7092C43.2747 22.7754 43.874 23.6995 44.659 24.4529C45.4296 25.2064 46.3572 25.8035 47.4418 26.2157C48.5264 26.628 49.7109 26.8412 50.9953 26.8412C52.294 26.827 53.4928 26.6138 54.5774 26.1731C55.662 25.7324 56.6039 25.1353 57.3888 24.3676C58.1737 23.6 58.7874 22.6759 59.2298 21.6097C59.6722 20.5435 59.8863 19.3635 59.8863 18.0557C59.8863 16.7193 59.6722 15.511 59.2298 14.4305C58.7874 13.3501 58.1737 12.4261 57.3888 11.6584C56.6039 10.8907 55.662 10.3221 54.5774 9.90979C53.4928 9.49753 52.3083 9.31272 50.9953 9.32693C49.7109 9.32693 48.5264 9.54017 47.4418 9.95244C46.3715 10.3647 45.4439 10.9618 44.659 11.7295C43.8883 12.4971 43.2747 13.4212 42.8323 14.5158ZM45.714 20.4294C45.4429 19.676 45.3001 18.8515 45.3001 17.9558C45.3001 17.1313 45.4286 16.3494 45.714 15.6244C45.9852 14.8994 46.3847 14.2738 46.8842 13.7336C47.398 13.1934 47.9974 12.7812 48.6967 12.4684C49.396 12.1699 50.1809 12.0135 51.0514 12.0135C51.9077 12.0135 52.6926 12.1556 53.4061 12.4684C54.1054 12.7669 54.7191 13.1934 55.2186 13.7336C55.7181 14.2738 56.1177 14.8994 56.3888 15.6244C56.66 16.3494 56.8027 17.1313 56.8027 17.9558C56.8027 18.8515 56.66 19.676 56.3888 20.4294C56.1177 21.1829 55.7181 21.8226 55.2186 22.3771C54.7191 22.9315 54.1197 23.358 53.4061 23.6707C52.7069 23.9835 51.922 24.1399 51.0514 24.1399C50.1809 24.1399 49.396 23.9835 48.6967 23.6707C47.9831 23.358 47.3837 22.9315 46.8842 22.3771C46.3847 21.8368 45.9852 21.1829 45.714 20.4294Z" fill="#0D0C1A"/>
<path d="M61.5391 15.1124H64.222V16.9179H64.2649C64.536 16.3493 64.9356 15.8659 65.4922 15.4536C66.0488 15.0414 66.7909 14.8281 67.7328 14.8281C68.4891 14.8281 69.1313 14.9561 69.6594 15.1977C70.1874 15.4536 70.6155 15.7806 70.9438 16.1787C71.272 16.5909 71.5146 17.0601 71.6573 17.5861C71.8001 18.1263 71.8714 18.6807 71.8714 19.2494V26.3716H69.0457V20.6567C69.0457 20.344 69.0314 19.9886 69.0029 19.6048C68.9744 19.2209 68.8887 18.8655 68.7603 18.5243C68.6319 18.1831 68.4178 17.8988 68.1324 17.6714C67.8469 17.4439 67.4616 17.3302 66.9764 17.3302C66.5054 17.3302 66.1058 17.4155 65.7776 17.5718C65.4494 17.7282 65.1925 17.9415 64.9784 18.2116C64.7644 18.4817 64.6074 18.7802 64.5217 19.1356C64.4218 19.4768 64.379 19.8464 64.379 20.216V26.3716H61.5533V15.1124H61.5391Z" fill="#0D0C1A"/>
<path fill-rule="evenodd" clip-rule="evenodd" d="M77.3989 23.7274C76.8423 23.2583 76.5141 22.6044 76.4142 21.7514H85.034V20.9695C85.034 19.9886 84.9055 19.1214 84.6487 18.3537C84.3918 17.5861 84.035 16.9463 83.564 16.4346C83.1074 15.9086 82.5508 15.5105 81.8943 15.2404C81.2521 14.9703 80.5243 14.8281 79.7394 14.8281C78.8831 14.8281 78.0839 14.9703 77.3275 15.2546C76.5712 15.5247 75.929 15.937 75.3724 16.4488C74.8158 16.9748 74.3877 17.6003 74.0594 18.3253C73.7312 19.0503 73.5742 19.8606 73.5742 20.7563C73.5742 21.6519 73.7312 22.4622 74.0594 23.1872C74.3877 23.9265 74.8158 24.552 75.3724 25.0638C75.9147 25.5755 76.5712 25.9736 77.3275 26.2579C78.0839 26.5422 78.8831 26.6844 79.7394 26.6844C80.6385 26.6844 81.4947 26.5138 82.3082 26.1726C83.1216 25.8314 83.8637 25.2486 84.5202 24.4383L82.4937 22.9029C82.1369 23.3436 81.7231 23.7132 81.2378 23.9976C80.7526 24.2961 80.1675 24.4383 79.4539 24.4383C78.6548 24.4383 77.9697 24.1966 77.3989 23.7274ZM81.4396 17.6704C81.9534 18.1537 82.2103 18.8077 82.2245 19.6322H76.4162C76.5303 18.8219 76.83 18.168 77.3295 17.6846C77.8147 17.2013 78.4855 16.9596 79.3418 16.9596C80.2408 16.9596 80.9401 17.1871 81.4396 17.6704Z" fill="#0D0C1A"/>
<path d="M95.1901 13.3369C94.8762 12.8819 94.448 12.555 93.9343 12.3417C93.4063 12.1285 92.8497 12.029 92.2646 12.029C91.9221 12.029 91.5795 12.0716 91.2656 12.1427C90.9373 12.228 90.6519 12.3417 90.395 12.5123C90.1382 12.6829 89.9241 12.9104 89.7671 13.1805C89.6101 13.4506 89.5245 13.7776 89.5245 14.1614C89.5245 14.73 89.7243 15.1565 90.1096 15.4551C90.5092 15.7536 90.9944 16.0095 91.5795 16.237C92.1647 16.4502 92.7926 16.6634 93.4919 16.8767C94.1912 17.0757 94.8191 17.36 95.4042 17.7297C95.9893 18.0851 96.4745 18.5684 96.8741 19.1655C97.2737 19.7626 97.4593 20.5587 97.4593 21.5396C97.4593 22.4352 97.288 23.2171 96.9598 23.8853C96.6315 24.5534 96.1891 25.1078 95.6325 25.5485C95.076 25.9892 94.4195 26.3162 93.6917 26.5295C92.9496 26.7427 92.1789 26.8564 91.3512 26.8564C90.3094 26.8564 89.3104 26.6858 88.3543 26.3446C87.3981 26.0035 86.5704 25.4206 85.8711 24.6103L88.1117 22.4494C88.4684 23.0038 88.9537 23.4303 89.5388 23.7289C90.1239 24.0416 90.7518 24.1838 91.4226 24.1838C91.7651 24.1838 92.1218 24.1411 92.4644 24.0416C92.8069 23.9421 93.1208 23.8 93.4063 23.6151C93.6917 23.4303 93.92 23.1887 94.0913 22.9043C94.2625 22.62 94.3481 22.2788 94.3481 21.9092C94.3481 21.2979 94.1483 20.8288 93.763 20.5018C93.3634 20.1748 92.8782 19.8905 92.2931 19.6631C91.708 19.4356 91.0801 19.2224 90.3808 19.0233C89.6815 18.8243 89.0536 18.54 88.4684 18.1846C87.8833 17.8292 87.3981 17.36 86.9985 16.7772C86.5989 16.1943 86.4134 15.3982 86.4134 14.4173C86.4134 13.5501 86.5847 12.8109 86.9414 12.1853C87.2982 11.5598 87.7549 11.0338 88.34 10.6216C88.9108 10.2093 89.5673 9.89655 90.3094 9.69752C91.0515 9.49849 91.8079 9.38477 92.5785 9.38477C93.4633 9.38477 94.3196 9.51271 95.1331 9.78282C95.9608 10.0529 96.7029 10.4936 97.3594 11.1049L95.1901 13.3369Z" fill="#0D0C1A"/>
<path d="M97.8164 15.1133H100.885L103.339 23.0175H103.382L105.666 15.1133H108.748L111.203 23.0175H111.246L113.6 15.1133H116.454L112.601 26.4009H109.79L107.093 18.6815H107.05L104.667 26.4009H101.755L97.8164 15.1133Z" fill="#0D0C1A"/>
<path fill-rule="evenodd" clip-rule="evenodd" d="M124.207 24.8505H124.279H124.293V26.4143H126.848V19.9175C126.848 19.6941 126.837 19.4273 126.824 19.1267C126.823 19.083 126.821 19.0386 126.819 18.9935C126.805 18.6381 126.748 18.2684 126.662 17.8988C126.576 17.515 126.434 17.1454 126.234 16.7757C126.034 16.4061 125.749 16.0791 125.392 15.7948C125.035 15.5105 124.579 15.283 124.022 15.0982C123.48 14.9134 122.795 14.8281 121.995 14.8281C121.096 14.8281 120.226 14.9703 119.384 15.2546C118.542 15.5389 117.8 16.0081 117.172 16.6478L118.67 18.1121C119.041 17.7567 119.498 17.4723 120.012 17.2591C120.526 17.0458 121.082 16.9463 121.681 16.9463C122.438 16.9463 123.066 17.1169 123.551 17.4723C124.036 17.8277 124.279 18.3537 124.279 19.0645V19.3773H123.565C123.094 19.3773 122.581 19.3773 122.053 19.4057C121.51 19.4342 120.982 19.491 120.454 19.5763C119.926 19.6616 119.412 19.7896 118.927 19.9602C118.442 20.1308 118.014 20.3724 117.643 20.6568C117.272 20.9411 116.972 21.3107 116.758 21.7372C116.544 22.1637 116.43 22.6897 116.43 23.301C116.43 23.8554 116.544 24.353 116.786 24.7794C117.015 25.1917 117.329 25.5471 117.714 25.8314C118.099 26.1158 118.542 26.329 119.041 26.4712C119.541 26.6133 120.055 26.6844 120.568 26.6844C121.325 26.6844 122.024 26.528 122.652 26.2437C123.28 25.9594 123.794 25.4903 124.207 24.8505ZM123.538 21.3525H124.123V21.978C124.123 22.7741 123.895 23.3996 123.424 23.8688C122.967 24.3379 122.239 24.5654 121.269 24.5654C121.026 24.5654 120.798 24.5369 120.555 24.4801C120.313 24.4232 120.099 24.3379 119.913 24.21C119.727 24.082 119.571 23.9399 119.456 23.755C119.342 23.5702 119.285 23.357 119.285 23.0869C119.285 22.6746 119.428 22.3619 119.727 22.1344C120.027 21.907 120.398 21.7364 120.826 21.6226C121.269 21.4947 121.725 21.4236 122.211 21.3952C122.71 21.3667 123.138 21.3525 123.538 21.3525Z" fill="#0D0C1A"/>
<path d="M18.457 36.5506C8.353 36.5506 0.132812 28.3621 0.132812 18.2971C0.132812 8.23202 8.353 0.0292969 18.457 0.0292969C20.3408 0.0292969 21.8678 1.55043 21.8678 3.42696C21.8678 5.30349 20.3408 6.82462 18.457 6.82462C12.1206 6.82462 6.9687 11.9567 6.9687 18.2686C6.9687 24.5806 12.1206 29.7127 18.457 29.7127C20.3408 29.7127 21.8678 31.2338 21.8678 33.1103C21.8821 35.0295 20.355 36.5506 18.457 36.5506Z" fill="url(#paint0_linear_28994_147785)"/>
<path d="M18.4577 0.0292969C20.3415 0.0292969 21.8685 1.55043 21.8685 3.42696C21.8685 5.30349 20.3415 6.82462 18.4577 6.82462C24.7941 6.82462 29.946 11.9566 29.946 18.2686C29.946 24.5806 24.7941 29.7126 18.4577 29.7126C16.5739 29.7126 15.0469 31.2337 15.0469 33.1103C15.0469 34.9868 16.5739 36.5079 18.4577 36.5079C28.5617 36.5079 36.7818 28.3194 36.7818 18.2544C36.7818 8.18937 28.5759 0.0292969 18.4577 0.0292969Z" fill="url(#paint1_linear_28994_147785)"/>
<defs>
<linearGradient id="paint0_linear_28994_147785" x1="0.14712" y1="1.67721" x2="4.51214" y2="36.2185" gradientUnits="userSpaceOnUse">
<stop stop-color="#FF2E70"/>
<stop offset="0.3996" stop-color="#BE22A9"/>
<stop offset="0.6715" stop-color="#8F19D3"/>
<stop offset="0.8789" stop-color="#7213EC"/>
<stop offset="1" stop-color="#6711F6"/>
</linearGradient>
<linearGradient id="paint1_linear_28994_147785" x1="37.1489" y1="37.0038" x2="35.7847" y2="-0.143939" gradientUnits="userSpaceOnUse">
<stop offset="0.0766852" stop-color="#FF2E70"/>
<stop offset="0.3996" stop-color="#BE22A9"/>
<stop offset="0.6715" stop-color="#8F19D3"/>
<stop offset="0.8789" stop-color="#7213EC"/>
<stop offset="0.9973" stop-color="#6711F6"/>
</linearGradient>
</defs>
</svg>
